<svg width="16" height="18" viewBox="0 0 16 18" fill="none" xmlns="http://www.w3.org/2000/svg">
<path d="M14.6112 5.5V2.38889H11.5M11.5 2.38889L11.8889 2V2.77778L11.5 2.38889Z" stroke="#FF8000" stroke-width="1.5" stroke-linecap="round"/>
<path d="M1 12.5V15.6111H4.5M4.5 15.6111L4.11111 16V15.2222L4.5 15.6111Z" stroke="#FF8000" stroke-width="1.5" stroke-linecap="round"/>
<path d="M8 9V3C8 2.44772 7.55228 2 7 2H2C1.44772 2 1 2.44772 1 3V8C1 8.55228 1.44772 9 2 9H8ZM8 9V15C8 15.5523 8.44772 16 9 16H14C14.5523 16 15 15.5523 15 15V10C15 9.44772 14.5523 9 14 9H8Z" stroke="#FF8000" stroke-width="1.5" stroke-linecap="round" stroke-linejoin="round"/>
</svg>
