<svg width="16" height="18" viewBox="0 0 16 18" fill="none" xmlns="http://www.w3.org/2000/svg">
<g clip-path="url(#clip0_188_55)">
<path d="M0.737305 4.07153H15.2636" stroke="#505050" stroke-width="1.5" stroke-linecap="round"/>
<path d="M13.6488 4.07136V15.5714C13.6488 16.0071 13.4788 16.4249 13.1761 16.733C12.8734 17.0411 12.4629 17.2142 12.0348 17.2142H3.96462C3.53655 17.2142 3.12602 17.0411 2.82333 16.733C2.52064 16.4249 2.35059 16.0071 2.35059 15.5714V4.07136M4.77164 4.07136V2.4285C4.77164 1.99279 4.94169 1.57492 5.24438 1.26683C5.54707 0.958731 5.9576 0.785645 6.38567 0.785645H9.61374C10.0418 0.785645 10.4523 0.958731 10.755 1.26683C11.0577 1.57492 11.2278 1.99279 11.2278 2.4285V4.07136" stroke="#505050" stroke-width="1.5" stroke-linecap="round" stroke-linejoin="round"/>
<path d="M6.38574 8.17847V13.107" stroke="#505050" stroke-width="1.5" stroke-linecap="round" stroke-linejoin="round"/>
<path d="M9.61426 8.17847V13.107" stroke="#505050" stroke-width="1.5" stroke-linecap="round" stroke-linejoin="round"/>
</g>
<defs>
<clipPath id="clip0_188_55">
<rect width="16" height="18" fill="white"/>
</clipPath>
</defs>
</svg>
