<svg width="15" height="16" viewBox="0 0 15 16" fill="none" xmlns="http://www.w3.org/2000/svg">
<g clip-path="url(#clip0_31_416)">
<path d="M0.193359 5.55553V3.11108H7.49924V5.55553H6.68748V3.9259H4.25218V12.074H5.87571V12.8889H1.81689V12.074H3.44042V3.9259H1.00512V5.55553H0.193359Z" fill="#505050" stroke="#505050" stroke-width="0.5"/>
<path fill-rule="evenodd" clip-rule="evenodd" d="M11.5588 12.4815C11.5588 13.5615 12.3962 14.4452 13.4548 14.5142L13.5882 14.5185H14.8059V15.3334H13.5882C12.5545 15.3334 11.6497 14.7791 11.1533 13.9506C10.6855 14.7304 9.85647 15.2672 8.89867 15.3276L8.71765 15.3334H7.5V14.5185H8.71765L8.8511 14.5142C9.86556 14.4481 10.6769 13.6337 10.7428 12.6155L10.7471 12.4815V8.00002H9.12353V7.18521H10.7471V3.51854C10.7471 2.43852 9.90972 1.5548 8.8511 1.48584L8.71765 1.4815H7.5V0.666687H8.71765C9.75143 0.666687 10.6562 1.22089 11.1533 2.04944C11.6497 1.22089 12.5545 0.666687 13.5882 0.666687H14.8059V1.4815H13.5882C12.4674 1.4815 11.5588 2.39352 11.5588 3.51854V12.4815ZM11.5588 7.18521H13.1824V8.00002H11.5588V7.18521Z" fill="#505050" stroke="#505050" stroke-width="0.5"/>
</g>
<defs>
<clipPath id="clip0_31_416">
<rect width="15" height="16" fill="white"/>
</clipPath>
</defs>
</svg>
