<svg width="16" height="16" viewBox="0 0 16 16" fill="none" xmlns="http://www.w3.org/2000/svg">
<g clip-path="url(#clip0_111_128)">
<path d="M8 12.6667L12.6667 8L14.6667 10L10 14.6667L8 12.6667Z" stroke="#0FC0C5" stroke-width="1.5" stroke-linecap="round" stroke-linejoin="round"/>
<path d="M11.9997 8.66665L10.9997 3.66665L1.33301 1.33331L3.66634 11L8.66634 12L11.9997 8.66665Z" stroke="#0FC0C5" stroke-width="1.5" stroke-linecap="round" stroke-linejoin="round"/>
<path d="M1.33301 1.33331L6.39034 6.39065" stroke="#0FC0C5" stroke-width="1.5" stroke-linecap="round" stroke-linejoin="round"/>
<path d="M7.33333 6C6.97971 6 6.64057 6.14048 6.39052 6.39052C6.14048 6.64057 6 6.97971 6 7.33333C6 7.68696 6.14048 8.02609 6.39052 8.27614C6.64057 8.52619 6.97971 8.66667 7.33333 8.66667C7.68696 8.66667 8.02609 8.52619 8.27614 8.27614C8.52619 8.02609 8.66667 7.68696 8.66667 7.33333C8.66667 6.97971 8.52619 6.64057 8.27614 6.39052C8.02609 6.14048 7.68696 6 7.33333 6Z" stroke="#0FC0C5" stroke-width="1.5" stroke-linecap="round" stroke-linejoin="round"/>
</g>
<defs>
<clipPath id="clip0_111_128">
<rect width="16" height="16" fill="white"/>
</clipPath>
</defs>
</svg>
