<svg width="18" height="18" viewBox="0 0 18 18" fill="none" xmlns="http://www.w3.org/2000/svg">
<path fill-rule="evenodd" clip-rule="evenodd" d="M13.0957 2.11506L15.8849 4.90406C16.0466 5.06583 16.1375 5.28522 16.1375 5.51396C16.1375 5.74271 16.0466 5.9621 15.8849 6.12387L9.55257 12.4558L5.54268 8.44789L11.875 2.11592C11.9551 2.03571 12.0503 1.97208 12.155 1.92867C12.2597 1.88526 12.372 1.86291 12.4854 1.86291C12.5987 1.86291 12.711 1.88526 12.8157 1.92867C12.9205 1.97208 13.0156 2.03571 13.0957 2.11592V2.11506ZM11.2659 1.50515C11.5895 1.1817 12.0283 1 12.4858 1C12.9433 1 13.3821 1.1817 13.7057 1.50515L16.4948 4.29415C16.8183 4.6177 17 5.05647 17 5.51396C17 5.97146 16.8183 6.41023 16.4948 6.73378L6.73408 16.4948C6.41052 16.8183 5.97173 17 5.51421 17C5.05669 17 4.6179 16.8183 4.29433 16.4948L1.50518 13.7058C1.18171 13.3823 1 12.9435 1 12.486C1 12.0285 1.18171 11.5898 1.50518 11.2662L11.2659 1.50515Z" fill="#505050" stroke="#505050" stroke-width="0.5"/>
</svg>
