<svg width="44" height="55" viewBox="0 0 44 55" fill="none" xmlns="http://www.w3.org/2000/svg">
<path d="M2 53.3076H42C42.5523 53.3076 43 52.8599 43 52.3076V11.4701C43 11.2059 42.8955 10.9525 42.7092 10.7651L33.6009 1.60261C33.4132 1.41379 33.158 1.30762 32.8917 1.30762H2C1.44772 1.30762 1 1.75533 1 2.30762V52.3076C1 52.8599 1.44772 53.3076 2 53.3076Z" stroke="#00CC44" stroke-width="1.5"/>
<path d="M42.6609 10.7166L33.6495 1.65149C33.5236 1.52492 33.3076 1.61403 33.3076 1.79249V11.0576H42.5191C42.697 11.0576 42.7864 10.8428 42.6609 10.7166Z" fill="#00CC44" stroke="#00CC44"/>
<path d="M33.3076 27.3076L10.6922 27.3076" stroke="#00CC44" stroke-width="1.5" stroke-linecap="round"/>
<path d="M33.3076 37.0576H10.6922" stroke="#00CC44" stroke-width="1.5" stroke-linecap="round"/>
<path d="M17.1543 43.5576L17.1543 11.0576" stroke="#00CC44" stroke-width="1.5" stroke-linecap="round"/>
<path d="M26.8457 43.5576L26.8457 20.8076" stroke="#00CC44" stroke-width="1.5" stroke-linecap="round"/>
</svg>
