<svg width="20" height="20" viewBox="0 0 20 20" fill="none" xmlns="http://www.w3.org/2000/svg">
<path d="M6 10C4.09922 10 2.79692 10 1.99906 10.0001C1.44681 10.0001 1 10.4478 1 11V18C1 18.5523 1.44772 19 2 19H18C18.5523 19 19 18.5523 19 18V11.2001V11.0002C19 10.4479 18.5523 10.0002 18 10.0002H16.6C15.5754 10.0002 15.1563 10 14 10" stroke="#505050" stroke-width="1.5"/>
<path d="M9.25003 12.9937C9.25003 13.4079 9.5858 13.7465 10 13.75C10.4142 13.7535 10.75 13.4205 10.75 13.0063L9.25003 12.9937ZM10.5303 0.474094C10.2374 0.178751 9.76258 0.174778 9.4697 0.465221L4.69689 5.19827C4.40401 5.48871 4.40401 5.96358 4.69689 6.25893C4.98977 6.55427 5.46463 6.55824 5.75751 6.2678L10 2.06065L14.2425 6.33878C14.5354 6.63412 15.0102 6.63809 15.3031 6.34765C15.596 6.05721 15.596 5.58233 15.3031 5.28699L10.5303 0.474094ZM10.75 13.0063L10.75 1.00626L9.25003 0.993714L9.25003 12.9937L10.75 13.0063Z" fill="#505050"/>
</svg>
