<svg width="22" height="28" viewBox="0 0 22 28" fill="none" xmlns="http://www.w3.org/2000/svg">
<path d="M2 27H20C20.5523 27 21 26.5523 21 26V6.27328C21 6.01753 20.902 5.7715 20.7262 5.58578L16.6805 1.31249C16.4916 1.11301 16.229 1 15.9543 1H2C1.44772 1 1 1.44772 1 2V26C1 26.5523 1.44772 27 2 27Z" stroke="#0FC0C5" stroke-width="1.5"/>
<path d="M20.6796 5.5375L16.729 1.36466C16.6047 1.23334 16.3838 1.32133 16.3838 1.50216V5.875H20.5344C20.71 5.875 20.8003 5.66498 20.6796 5.5375Z" stroke="#0FC0C5" stroke-width="1.5"/>
<path d="M7 16L15 16" stroke="#0FC0C5" stroke-width="1.5" stroke-linecap="round"/>
<path d="M11 20L11 12" stroke="#0FC0C5" stroke-width="1.5" stroke-linecap="round"/>
</svg>
