<svg width="116" height="72" viewBox="0 0 116 72" fill="none" xmlns="http://www.w3.org/2000/svg">
<path d="M68.7973 1.06557L105.275 2.33063L114.94 12.6233L113.16 63.241C113.104 64.8306 111.813 66.0881 110.235 66.135L110.036 66.1345L83.3741 65.2087L83.3749 69.6C83.3749 70.9255 82.2929 72 80.9582 72H37.4582C36.1235 72 35.0416 70.9255 35.0416 69.6L35.0407 65.1223L5.96394 66.1314C4.36329 66.1869 3.01009 64.9953 2.85288 63.4348L2.83952 63.2379L0.815352 5.67303C0.759456 4.08342 1.9594 2.73955 3.53064 2.58342L3.72892 2.57016L40.2069 1.30511L48.9582 9.4095L48.7783 9.59946H65.4738L65.6729 3.95904C65.7288 2.36943 67.0202 1.11196 68.5986 1.06506L68.7973 1.06557ZM72.4991 10.7995L37.4582 10.8C36.8386 10.8 36.3278 11.2633 36.258 11.8601L36.2499 12L36.2491 46.7995L60.4166 46.8C61.0839 46.8 61.6249 47.3373 61.6249 48V61.2C61.6249 61.8628 61.0839 62.4 60.4166 62.4L36.2491 62.3995L36.2499 69.6C36.2499 70.2154 36.7164 70.7226 37.3173 70.7919L37.4582 70.8H80.9582C81.5779 70.8 82.0886 70.3368 82.1584 69.74L82.1666 69.6L82.1657 20.3995L72.4999 20.4L72.4991 10.7995ZM68.7552 2.26484C67.8136 2.23219 67.0147 2.91878 66.8949 3.82796L66.8805 4.00092L66.6834 9.59946L73.7082 9.60003L83.3749 19.2L83.3739 30.7547C85.2672 29.7973 87.3848 29.3224 89.5642 29.398C96.5671 29.6408 102.046 35.4755 101.801 42.43C101.557 49.3846 95.6815 54.8255 88.6787 54.5826C86.8044 54.5176 85.0029 54.0498 83.3737 53.2264L83.3741 64.0087L110.078 64.9352C111.02 64.9679 111.818 64.2813 111.938 63.3721L111.953 63.1991L113.679 14.0287L104.625 13.715L103.417 13.6731L103.776 3.47706L68.7552 2.26484ZM38.7902 2.55306L3.77109 3.76943C2.82953 3.80208 2.08085 4.54235 2.02515 5.45762L2.02295 5.63115L4.04712 63.1961C4.08 64.1311 4.82541 64.8746 5.74703 64.93L5.92177 64.9321L35.0407 63.9223V62.3995L33.8332 62.4C33.1659 62.4 32.6249 61.8628 32.6249 61.2L32.6241 53.8015L23.6773 54.112L23.6773 54.1132L22.4697 54.1551L22.4697 54.1539L16.4317 54.3633L15.2242 54.4064L14.3386 29.2217L35.0407 28.5031L35.0416 12C35.0416 10.6745 36.1235 9.60003 37.4582 9.60003L39.0379 9.59946L38.7902 2.55306ZM71.2916 60V61.2H64.0416V60H71.2916ZM39.0467 50.4H36.2499V58.8H37.8248V55.7175H39.101C41.0154 55.7175 42.4816 54.8569 42.4816 52.9945C42.4816 51.0422 41.0154 50.4 39.0467 50.4ZM46.5275 50.4H44.1516V58.8H46.609C49.2429 58.8 50.8449 57.3486 50.8449 54.5615C50.8449 51.7872 49.2429 50.4 46.5275 50.4ZM57.9999 50.4H52.6371V58.8H54.212V55.2936H57.4433V54.0349H54.212V51.6587H57.9999V50.4ZM46.4189 51.6074C48.211 51.6074 49.2293 52.5064 49.2293 54.5615C49.2293 56.5467 48.2909 57.5139 46.6302 57.5881L46.4189 57.5927H45.7265V51.6074H46.4189ZM71.2916 54V55.2H64.0416V54H71.2916ZM38.9245 51.5945C40.2415 51.5945 40.9339 51.9413 40.9339 52.9945C40.9339 53.9616 40.3686 54.4622 39.2042 54.5178L38.9788 54.523H37.8248V51.5945H38.9245ZM83.407 32.1013L83.3741 32.1199L83.3744 51.8615C84.9874 52.7897 86.8112 53.3171 88.7208 53.3834C94.6471 53.5889 99.6808 49.2954 100.488 43.5904L89.0792 43.1942L89.5221 30.5972C87.349 30.5219 85.2464 31.0504 83.407 32.1013ZM22.2589 48.1588L16.2209 48.3682L16.3895 53.164L22.4275 52.9546L22.2589 48.1588ZM32.642 47.7979L23.4665 48.1169L23.6351 52.9128L32.6241 52.6015L32.6249 48C32.6249 47.9311 32.6307 47.8636 32.642 47.7979ZM71.2916 48V49.2H64.0416V48H71.2916ZM22.048 42.1624L16.0101 42.3718L16.1787 47.1689L22.2167 46.9595L22.048 42.1624ZM35.0407 41.7103L23.2556 42.1205L23.4243 46.9176L35.0407 46.5139V41.7103ZM71.2916 42V43.2H47.1249V42H71.2916ZM21.8372 36.1661L15.7992 36.3755L15.9679 41.1726L22.0059 40.9632L21.8372 36.1661ZM35.0407 35.7067L23.0448 36.1242L23.2135 40.9213L35.0407 40.5103V35.7067ZM71.2916 36V37.2H47.1249V36H71.2916ZM21.6263 30.1697L15.5883 30.3791L15.757 35.1762L21.795 34.9668L21.6263 30.1697ZM35.0407 29.7043L22.8339 30.1279L23.0026 34.9249L35.0407 34.5067V29.7043ZM73.7074 11.2975V19.1995H81.6643L73.7074 11.2975ZM104.973 3.76866L104.666 12.5155L113.474 12.8203L104.973 3.76866ZM40.007 2.75946L40.2474 9.59946H47.3911L40.007 2.75946Z" fill="black"/>
</svg>
