<svg width="16" height="20" viewBox="0 0 16 20" fill="none" xmlns="http://www.w3.org/2000/svg">
<path d="M2 19H14C14.5523 19 15 18.5523 15 18V4.77648C15 4.51882 14.9005 4.27111 14.7224 4.08498L12.0645 1.3085C11.8759 1.11144 11.615 1 11.3422 1H2C1.44772 1 1 1.44772 1 2V18C1 18.5523 1.44772 19 2 19Z" stroke="#505050" stroke-width="1.5"/>
<path d="M14.6755 4.0367L12.113 1.35985C11.9884 1.22961 11.7686 1.31786 11.7686 1.49815V4.375H14.531C14.7071 4.375 14.7972 4.1639 14.6755 4.0367Z" stroke="#505050" stroke-width="1.5"/>
<path d="M5.2002 11.3845L10.8002 11.3845" stroke="#505050" stroke-width="1.5" stroke-linecap="round"/>
<path d="M8 14.1538L8 8.61535" stroke="#505050" stroke-width="1.5" stroke-linecap="round"/>
</svg>
