<svg width="17" height="16" viewBox="0 0 17 16" fill="none" xmlns="http://www.w3.org/2000/svg">
<line x1="8.75" x2="8.75" y2="16" stroke="#505050" stroke-width="1.5"/>
<path d="M11.5 0.75L6 0.75" stroke="#505050" stroke-width="1.5" stroke-linecap="square"/>
<path d="M11.5 15.25H6" stroke="#505050" stroke-width="1.5" stroke-linecap="square"/>
<path fill-rule="evenodd" clip-rule="evenodd" d="M1 3C0.447723 3 0 3.44772 0 4V12C0 12.5523 0.447723 13 1 13H6C6.55228 13 7 12.5523 7 12V4C7 3.44772 6.55228 3 6 3H1ZM4.51047 9.74063L4.95209 11H6L3.91168 5H3.14819L1 11H2.05539L2.49701 9.74063H4.51047ZM4.22604 8.78711H2.80389L3.51498 6.62817L4.22604 8.78711Z" fill="#505050"/>
<path d="M13.0252 5V7.84253C13.3053 7.46568 13.7003 7.27725 14.2101 7.27725C14.7423 7.27725 15.1737 7.45222 15.5042 7.80215C15.8347 8.15209 16 8.59623 16 9.13459C16 9.67295 15.8291 10.1198 15.4874 10.4751C15.1513 10.825 14.7171 11 14.1849 11C13.6975 11 13.3109 10.8116 13.0252 10.4347V10.8869H12V5H13.0252ZM14.6555 8.43203C14.465 8.24361 14.2241 8.14939 13.9328 8.14939C13.6415 8.14939 13.4006 8.24361 13.2101 8.43203C13.0196 8.62046 12.9244 8.85464 12.9244 9.13459C12.9244 9.41454 13.0196 9.65141 13.2101 9.84522C13.4006 10.0336 13.6415 10.1279 13.9328 10.1279C14.2241 10.1279 14.465 10.0336 14.6555 9.84522C14.8459 9.65141 14.9412 9.41454 14.9412 9.13459C14.9412 8.85464 14.8459 8.62046 14.6555 8.43203Z" fill="#505050" stroke="#505050" stroke-width="0.3"/>
</svg>
