<svg width="16" height="16" viewBox="0 0 16 16" fill="none" xmlns="http://www.w3.org/2000/svg">
<g clip-path="url(#clip0_31_224)">
<path fill-rule="evenodd" clip-rule="evenodd" d="M11.6004 0H10.0004H9.20039H7.60039V0.8H9.20039V15.2H7.60039V16H9.20039H10.0004H11.6004V15.2H10.0004V0.8H11.6004V0ZM2.00039 2.4C1.11673 2.4 0.400391 3.11634 0.400391 4V12C0.400391 12.8837 1.11673 13.6 2.00039 13.6H8.40039V2.4H2.00039ZM3.58623 8.6272L3.80703 7.8592C3.90943 7.5264 4.00543 7.1872 4.09503 6.8416L4.36383 5.7856H4.40223C4.49183 6.1312 4.58143 6.48 4.67103 6.832C4.76703 7.184 4.86623 7.5264 4.96863 7.8592L5.18943 8.6272H3.58623ZM3.74943 4.9216L1.70463 11.2H2.83743L3.32703 9.5008H5.43903L5.92863 11.2H7.09983L5.05503 4.9216H3.74943ZM13.8813 11.3152C13.6637 11.3152 13.4429 11.264 13.2189 11.1616C13.0013 11.0528 12.7933 10.8992 12.5949 10.7008H12.5661L12.4701 11.2H11.5965V4.42242H12.7005V6.16962L12.6717 6.9568C12.8701 6.784 13.0845 6.6432 13.3149 6.5344C13.5517 6.4256 13.7917 6.37122 14.0349 6.37122C14.3293 6.37122 14.5917 6.4288 14.8221 6.544C15.0525 6.6528 15.2477 6.8128 15.4077 7.024C15.5677 7.2288 15.6893 7.4784 15.7725 7.7728C15.8557 8.0672 15.8973 8.3968 15.8973 8.7616C15.8973 9.1648 15.8397 9.5264 15.7245 9.8464C15.6157 10.16 15.4685 10.4256 15.2829 10.6432C15.0973 10.8608 14.8829 11.0272 14.6397 11.1424C14.3965 11.2576 14.1437 11.3152 13.8813 11.3152ZM13.6509 10.4032C13.9645 10.4032 14.2269 10.2688 14.4381 10C14.6493 9.7248 14.7549 9.3184 14.7549 8.7808C14.7549 8.3072 14.6749 7.9392 14.5149 7.6768C14.3549 7.4144 14.0957 7.2832 13.7373 7.2832C13.4045 7.2832 13.0589 7.4592 12.7005 7.8112V10.0096C12.8669 10.1568 13.0301 10.2592 13.1901 10.3168C13.3565 10.3744 13.5101 10.4032 13.6509 10.4032Z" fill="#505050"/>
</g>
<defs>
<clipPath id="clip0_31_224">
<rect width="16" height="16" fill="white"/>
</clipPath>
</defs>
</svg>
