<svg width="15" height="18" viewBox="0 0 15 18" fill="none" xmlns="http://www.w3.org/2000/svg">
<path d="M2 17H13C13.5523 17 14 16.5523 14 16V9V4.41421C14 4.149 13.8946 3.89464 13.7071 3.70711L11.2929 1.29289C11.1054 1.10536 10.851 1 10.5858 1H2C1.44772 1 1 1.44771 1 2V12.8127V16C1 16.5523 1.44772 17 2 17Z" stroke="#FFFF33" stroke-width="1.5"/>
<path d="M4 5.5C4 6.32843 4.67157 7 5.5 7C6.32843 7 7 6.32843 7 5.5C7 4.67157 6.32843 4 5.5 4C4.67157 4 4 4.67157 4 5.5Z" stroke="#FFFF33" stroke-width="1.5"/>
<path d="M13.6586 3.65858L11.3414 1.34142C11.2154 1.21543 11 1.30466 11 1.48284V4H13.5172C13.6953 4 13.7846 3.78457 13.6586 3.65858Z" fill="#FFFF33" stroke="#FFFF33"/>
<path d="M1 12.8127C1.5 11.9794 3.7 10.8127 8.5 12.8127C9.05023 13.042 9.54877 13.1905 10 13.2712M14 9C14.1476 10.4756 13.4851 13.8948 10 13.2712M10 13.2712V10M10 10L12 8M10 10L8.5 8.5M10 10V7" stroke="#FFFF33" stroke-width="1.5" stroke-linecap="round" stroke-linejoin="round"/>
</svg>
