<svg width="44" height="54" viewBox="0 0 44 54" fill="none" xmlns="http://www.w3.org/2000/svg">
<path d="M2 53H41.9392C42.4915 53 42.9392 52.5523 42.9392 52V27V11.1621C42.9392 10.8981 42.8348 10.6449 42.6489 10.4576L33.5542 1.29551C33.3665 1.10637 33.111 1 32.8445 1H2C1.44772 1 1 1.44772 1 2V39.3914V52C1 52.5523 1.44772 53 2 53Z" stroke="#FFFF33" stroke-width="1.5"/>
<path d="M10.6787 15.625C10.6787 18.2976 12.8453 20.5 15.5178 20.5C18.1904 20.5 20.357 18.2976 20.357 15.625C20.357 12.9524 18.1904 10.75 15.5178 10.75C12.8453 10.75 10.6787 12.9524 10.6787 15.625Z" stroke="#FFFF33" stroke-width="1.5"/>
<path d="M42.6006 10.4091L33.6027 1.34448C33.4769 1.21777 33.2607 1.30684 33.2607 1.48538V10.75H42.4587C42.6365 10.75 42.7259 10.5353 42.6006 10.4091Z" fill="#FFFF33" stroke="#FFFF33"/>
<path d="M1 39.3914C2.61305 36.6831 9.71044 32.8914 25.1957 39.3914C26.9708 40.1365 28.5791 40.6191 30.0348 40.8815M42.9392 27C43.4152 31.7957 41.2781 42.908 30.0348 40.8815M30.0348 40.8815V30.25M30.0348 30.25L36.487 23.75M30.0348 30.25L25.1957 25.375M30.0348 30.25V20.5" stroke="#FFFF33" stroke-width="1.5" stroke-linecap="round" stroke-linejoin="round"/>
</svg>
