<svg width="18" height="18" viewBox="0 0 18 18" fill="none" xmlns="http://www.w3.org/2000/svg">
<path d="M10.6667 1H2C1.44772 1 1 1.44772 1 2V10.6667C1 11.219 1.44771 11.6667 2 11.6667H5.36823C5.92866 11.6667 6.37967 11.2062 6.36802 10.6459L6.29831 7.29418C6.28665 6.73388 6.73767 6.27339 7.29809 6.27339H10.6667C11.219 6.27339 11.6667 5.82568 11.6667 5.27339V2C11.6667 1.44772 11.219 1 10.6667 1Z" stroke="#FFFF33" stroke-width="1.5"/>
<path d="M6.33301 7.33331C6.33301 6.78103 6.78072 6.33331 7.33301 6.33331H15.9997C16.552 6.33331 16.9997 6.78103 16.9997 7.33331V16C16.9997 16.5523 16.552 17 15.9997 17H7.33301C6.78072 17 6.33301 16.5523 6.33301 16V7.33331Z" stroke="#FFFF33" stroke-width="1.5"/>
<path d="M9.88867 11.6667H13.4442M11.6664 9.88892V13.4445" stroke="#FFFF33" stroke-width="1.5" stroke-linecap="round" stroke-linejoin="round"/>
</svg>
