<svg width="18" height="18" viewBox="0 0 18 18" fill="none" xmlns="http://www.w3.org/2000/svg">
<g clip-path="url(#clip0_23_1974)">
<path d="M5.625 1.40625H2.25C2.02622 1.40625 1.81161 1.49514 1.65338 1.65338C1.49514 1.81161 1.40625 2.02622 1.40625 2.25V5.625" stroke="#505050" stroke-width="1.5" stroke-linecap="round" stroke-linejoin="round"/>
<path d="M5.625 16.5938H2.25C2.02622 16.5938 1.81161 16.5049 1.65338 16.3466C1.49514 16.1884 1.40625 15.9738 1.40625 15.75V12.375" stroke="#505050" stroke-width="1.5" stroke-linecap="round" stroke-linejoin="round"/>
<path d="M12.375 16.5938H15.75C15.9738 16.5938 16.1884 16.5049 16.3466 16.3466C16.5049 16.1884 16.5938 15.9738 16.5938 15.75V12.375" stroke="#505050" stroke-width="1.5" stroke-linecap="round" stroke-linejoin="round"/>
<path d="M12.375 1.40625H15.75C15.9738 1.40625 16.1884 1.49514 16.3466 1.65338C16.5049 1.81161 16.5938 2.02622 16.5938 2.25V5.625" stroke="#505050" stroke-width="1.5" stroke-linecap="round" stroke-linejoin="round"/>
<path d="M12.375 9H5.625" stroke="#505050" stroke-width="1.5" stroke-linecap="round" stroke-linejoin="round"/>
<path d="M9 12.375V5.625" stroke="#505050" stroke-width="1.5" stroke-linecap="round" stroke-linejoin="round"/>
</g>
<defs>
<clipPath id="clip0_23_1974">
<rect width="18" height="18" fill="white"/>
</clipPath>
</defs>
</svg>
