<svg width="18" height="18" viewBox="0 0 18 18" fill="none" xmlns="http://www.w3.org/2000/svg">
<path d="M7.33333 17H16C16.5523 17 17 16.5523 17 16V7.33332C17 6.78103 16.5523 6.33332 16 6.33332H12.6318C12.0713 6.33332 11.6203 6.79381 11.632 7.35411L11.7017 10.7058C11.7133 11.2661 11.2623 11.7266 10.7019 11.7266H7.33333C6.78105 11.7266 6.33333 12.1743 6.33333 12.7266V16C6.33333 16.5523 6.78105 17 7.33333 17Z" stroke="#0FC0C5" stroke-width="1.5"/>
<path d="M11.667 10.6667C11.667 11.219 11.2193 11.6667 10.667 11.6667H2.00033C1.44804 11.6667 1.00033 11.219 1.00033 10.6667V2.00001C1.00033 1.44772 1.44804 1 2.00033 1H10.667C11.2193 1 11.667 1.44772 11.667 2V10.6667Z" stroke="#0FC0C5" stroke-width="1.5"/>
<path d="M5.94956 8.99998V4.70398H5.18956V3.66398H7.18156V8.99998H5.94956Z" fill="#0FC0C5"/>
</svg>
