<svg width="16" height="16" viewBox="0 0 16 16" fill="none" xmlns="http://www.w3.org/2000/svg">
<g clip-path="url(#clip0_278_7)">
<path d="M1.25 2.25C1.25 1.69772 1.69772 1.25 2.25 1.25H5.5C6.05228 1.25 6.5 1.69772 6.5 2.25V5.5C6.5 6.05228 6.05228 6.5 5.5 6.5H2.25C1.69772 6.5 1.25 6.05228 1.25 5.5V2.25Z" stroke="#505050" stroke-width="1.5" stroke-linecap="round"/>
<path d="M9.5 2.25C9.5 1.69772 9.94772 1.25 10.5 1.25H13.75C14.3023 1.25 14.75 1.69772 14.75 2.25V5.5C14.75 6.05228 14.3023 6.5 13.75 6.5H10.5C9.94772 6.5 9.5 6.05228 9.5 5.5V2.25Z" stroke="#505050" stroke-width="1.5" stroke-linecap="round"/>
<path d="M9.5 10.5C9.5 9.94772 9.94772 9.5 10.5 9.5H13.75C14.3023 9.5 14.75 9.94772 14.75 10.5V13.75C14.75 14.3023 14.3023 14.75 13.75 14.75H10.5C9.94772 14.75 9.5 14.3023 9.5 13.75V10.5Z" stroke="#505050" stroke-width="1.5" stroke-linecap="round"/>
<path d="M1.25 10.5C1.25 9.94772 1.69772 9.5 2.25 9.5H5.5C6.05228 9.5 6.5 9.94772 6.5 10.5V13.75C6.5 14.3023 6.05228 14.75 5.5 14.75H2.25C1.69772 14.75 1.25 14.3023 1.25 13.75V10.5Z" stroke="#505050" stroke-width="1.5" stroke-linecap="round"/>
</g>
<defs>
<clipPath id="clip0_278_7">
<rect width="16" height="16" fill="white"/>
</clipPath>
</defs>
</svg>
