<svg width="43" height="50" viewBox="0 0 43 50" fill="none" xmlns="http://www.w3.org/2000/svg">
<g clip-path="url(#clip0_23_1697)">
<g clip-path="url(#clip1_23_1697)">
<path d="M4.235 42.7083V47.9166C4.235 48.1929 4.235 48.9554 4.235 48.9554C4.235 48.9554 4.99297 48.9583 5.26656 48.9583H40.3398C40.6134 48.9583 41.3714 48.9583 41.3714 48.9583C41.3714 48.9583 41.3714 48.1929 41.3714 47.9166V10.0229V10.4166H32.0873V1.04165H32.5587H5.26656C4.99297 1.04165 4.235 1.04165 4.235 1.04165C4.235 1.04165 4.235 1.80705 4.235 2.08331V29.1666H24.8694C25.4613 29.1666 26.9294 29.1666 26.9294 29.1666C26.9294 29.1666 26.9294 30.6989 26.9294 31.2531V40.6219C26.9298 40.8954 26.9294 41.4374 26.9294 41.4374V42.7083H25.6641C25.6641 42.7083 25.1403 42.7079 24.8694 42.7083H4.235ZM3.20343 42.7083H2.16877C1.89776 42.7082 1.37177 42.698 1.37177 42.698H0.108623C0.108623 42.698 0.108664 41.6675 0.108645 41.4403C0.108611 41.2131 0.108055 40.8955 0.108733 40.6219V31.2531C0.108327 30.9795 0.108733 29.9492 0.108733 29.9492V29.1666H1C1 29.1666 1.89784 29.1671 2.16877 29.1666H3.20343V2.08331C3.20343 1.53078 3.19747 -6.10352e-05 3.19747 -6.10352e-05C3.19747 -6.10352e-05 4.71938 -1.91604e-05 5.26656 -1.91604e-05H32.5587C32.8315 -0.000103097 33.3534 -3.49029e-05 33.3534 -3.49029e-05C33.3534 -3.49029e-05 33.8337 0.421908 34.0256 0.617689L41.8067 8.55831C42.0015 8.75719 42.3636 9.29061 42.3636 9.29061C42.3636 9.29061 42.4029 9.75419 42.4029 10.0229V47.9166C42.4029 48.4692 42.4029 50 42.4029 50C42.4029 50 40.887 50 40.3398 50H5.26656C4.71938 50 3.19755 49.9999 3.19755 49.9999C3.19755 49.9999 3.20343 48.4692 3.20343 47.9166V42.7083ZM41.1475 9.37498C41.1243 9.34552 41.0995 9.31736 41.0732 9.29061L33.2921 1.35102C33.2397 1.29725 33.1816 1.2494 33.1188 1.20831V9.37498H41.1475ZM12.4875 25H34.1504V26.0416H12.4875V25ZM12.4875 19.7916H34.1504V20.8333H12.4875V19.7916ZM28.9926 30.2083H34.1504V31.25H28.9926V30.2083ZM28.9926 35.4166H34.1504V36.4583H28.9926V35.4166ZM28.9926 40.625H34.1504V41.6666H28.9926V40.625ZM9.64556 34.4666C9.64556 33.6969 9.41346 33.1177 8.94822 32.7291C8.48299 32.3416 7.80318 32.1469 6.91088 32.1469H4.55891V39.5833H6.11967V36.9375H6.79018C7.70312 36.9375 8.40768 36.726 8.90283 36.3021C9.39798 35.8791 9.64556 35.2666 9.64556 34.4666ZM6.11967 35.6458V33.4375H6.83041C7.25645 33.4375 7.57005 33.526 7.76914 33.7021C7.96926 33.8791 8.06829 34.1521 8.06829 34.5219C8.06829 34.8875 7.94966 35.1666 7.71137 35.3583C7.47308 35.55 7.11306 35.6458 6.63339 35.6458H6.11967ZM17.1461 35.7927C17.1461 34.6437 16.8129 33.7479 16.1486 33.1073C15.4832 32.4666 14.5496 32.1458 13.3478 32.1458H11.0361V39.5833H13.1209C14.4238 39.5833 15.4213 39.2583 16.1104 38.6062C16.8015 37.9552 17.1461 37.0166 17.1461 35.7927ZM15.5234 35.8344C15.5234 37.4646 14.7714 38.2802 13.2674 38.2802H12.5969V33.4385H13.4283C14.8251 33.4385 15.5234 34.2364 15.5234 35.8344ZM20.2078 39.5833V36.6437H22.7062V35.3562H20.2078V33.4396H22.8929V32.1479H18.6718V39.5833H20.2088H20.2078Z" fill="black"/>
</g>
</g>
<defs>
<clipPath id="clip0_23_1697">
<rect width="43" height="50" fill="white"/>
</clipPath>
<clipPath id="clip1_23_1697">
<rect width="43" height="50" fill="white"/>
</clipPath>
</defs>
</svg>
