<svg width="12" height="12" viewBox="0 0 12 12" fill="none" xmlns="http://www.w3.org/2000/svg">
<g clip-path="url(#clip0_250_398)">
<path d="M8.63846 1.28688C8.7747 1.15064 8.93644 1.04257 9.11445 0.968832C9.29246 0.895098 9.48325 0.857147 9.67593 0.857147C9.86861 0.857147 10.0594 0.895098 10.2374 0.968832C10.4154 1.04257 10.5772 1.15064 10.7134 1.28688C10.8496 1.42312 10.9577 1.58487 11.0315 1.76288C11.1052 1.94089 11.1431 2.13168 11.1431 2.32435C11.1431 2.51703 11.1052 2.70782 11.0315 2.88583C10.9577 3.06384 10.8496 3.22558 10.7134 3.36183L3.71047 10.3648L0.857422 11.1429L1.63553 8.28982L8.63846 1.28688Z" stroke="#505050" stroke-width="1.5" stroke-linecap="round" stroke-linejoin="round"/>
</g>
<defs>
<clipPath id="clip0_250_398">
<rect width="12" height="12" fill="white"/>
</clipPath>
</defs>
</svg>
