<svg width="15" height="18" viewBox="0 0 15 18" fill="none" xmlns="http://www.w3.org/2000/svg">
<path d="M2 17H13C13.5523 17 14 16.5523 14 16V9V4.41421C14 4.149 13.8946 3.89464 13.7071 3.70711L11.2929 1.29289C11.1054 1.10536 10.851 1 10.5858 1H2C1.44772 1 1 1.44771 1 2V12.8127V16C1 16.5523 1.44772 17 2 17Z" stroke="#C43F1D" stroke-width="1.5"/>
<path d="M13.6586 3.65858L11.3414 1.34142C11.2154 1.21543 11 1.30466 11 1.48284V4H13.5172C13.6953 4 13.7846 3.78457 13.6586 3.65858Z" fill="#C43F1D" stroke="#C43F1D"/>
<path d="M7 14C8.58963 14 9.8905 12.7636 9.99344 11.2C10.0007 11.0898 9.91046 11 9.8 11H7.2C7.08954 11 7 10.9105 7 10.8V8.2C7 8.08954 6.91018 7.99931 6.79996 8.00656C5.23637 8.1095 4 9.41036 4 11C4 12.6569 5.34315 14 7 14Z" fill="#C43F1D"/>
<path d="M10.9934 9.79996C10.8949 8.30249 9.69751 7.10515 8.20004 7.00656C8.08982 6.99931 8 7.08954 8 7.2V9.8C8 9.91046 8.08954 10 8.2 10H10.8C10.9105 10 11.0007 9.91018 10.9934 9.79996Z" fill="#C43F1D"/>
</svg>
