<svg width="44" height="54" viewBox="0 0 44 54" fill="none" xmlns="http://www.w3.org/2000/svg">
<path d="M2 53H42C42.5523 53 43 52.5523 43 52V27V11.1625C43 10.8983 42.8955 10.6448 42.7092 10.4575L33.6009 1.29499C33.4132 1.10617 33.158 1 32.8917 1H2C1.44772 1 1 1.44772 1 2V39.3914V52C1 52.5523 1.44772 53 2 53Z" stroke="#C43F1D" stroke-width="1.5"/>
<path d="M42.6609 10.409L33.6495 1.34388C33.5236 1.21731 33.3076 1.30641 33.3076 1.48488V10.75H42.5191C42.697 10.75 42.7864 10.5352 42.6609 10.409Z" fill="#C43F1D" stroke="#C43F1D"/>
<path d="M20.3847 43.25C25.6709 43.25 29.9688 38.9928 30.075 33.7007C30.0772 33.5903 29.9875 33.5 29.877 33.5H20.5847C20.4742 33.5 20.3847 33.4105 20.3847 33.3V23.95C20.3847 23.8395 20.2944 23.7498 20.184 23.752C14.9237 23.8595 10.6924 28.1827 10.6924 33.5C10.6924 38.8848 15.0318 43.25 20.3847 43.25Z" fill="#C43F1D"/>
<path d="M33.3055 30.0493C33.2007 24.8243 29.0098 20.6082 23.8159 20.502C23.7055 20.4998 23.6152 20.5895 23.6152 20.7V30.05C23.6152 30.1605 23.7048 30.25 23.8152 30.25H33.1075C33.218 30.25 33.3077 30.1597 33.3055 30.0493Z" fill="#C43F1D"/>
</svg>
