<svg width="18" height="18" viewBox="0 0 18 18" fill="none" xmlns="http://www.w3.org/2000/svg">
<path d="M9 17H7C6.44772 17 6 16.5523 6 16V2C6 1.44772 6.44772 1 7 1H9" stroke="#0FC0C5" stroke-width="1.5" stroke-linecap="round"/>
<path d="M13 17H16C16.5523 17 17 16.5523 17 16V2C17 1.44771 16.5523 1 16 1H13C12.4477 1 12 1.44771 12 2V16C12 16.5523 12.4477 17 13 17Z" stroke="#0FC0C5" stroke-width="1.5" stroke-linecap="round"/>
<path d="M3 17H2C1.44772 17 1 16.5523 1 16V2C1 1.44772 1.44772 1 2 1H3" stroke="#0FC0C5" stroke-width="1.5" stroke-linecap="round"/>
</svg>
