<svg width="20" height="18" viewBox="0 0 20 18" fill="none" xmlns="http://www.w3.org/2000/svg">
<g clip-path="url(#clip0_23_1963)">
<path d="M7.61817 16.9076C6.23985 16.5002 4.99157 15.7465 3.99484 14.7197C4.31546 14.3432 4.51534 13.8806 4.56891 13.391C4.62248 12.9014 4.5273 12.4071 4.29555 11.9714C4.0638 11.5356 3.70601 11.1782 3.26796 10.9449C2.82991 10.7116 2.3315 10.6129 1.83651 10.6615C1.55196 9.28726 1.6245 7.86395 2.04734 6.525H2.08317C2.50803 6.52506 2.92591 6.41793 3.29733 6.21372C3.66876 6.00951 3.98149 5.71495 4.206 5.35786C4.43051 5.00076 4.55939 4.59292 4.58048 4.17282C4.60156 3.75272 4.51415 3.33424 4.32651 2.95687C5.30341 2.05581 6.48501 1.40074 7.77151 1.047C7.98066 1.45411 8.29954 1.79599 8.69283 2.03478C9.08611 2.27357 9.53848 2.39996 9.99984 2.39996C10.4612 2.39996 10.9136 2.27357 11.3069 2.03478C11.7001 1.79599 12.019 1.45411 12.2282 1.047C13.5146 1.4005 14.6962 2.05528 15.6732 2.95605C15.484 3.33609 15.3965 3.75785 15.4191 4.18096C15.4417 4.60406 15.5736 5.01434 15.8023 5.3725C16.0309 5.73067 16.3486 6.02472 16.7249 6.22652C17.1012 6.42831 17.5236 6.53109 17.9515 6.525C18.375 7.86407 18.4482 9.28768 18.164 10.6624C17.669 10.6137 17.1706 10.7124 16.7326 10.9457C16.2945 11.179 15.9367 11.5364 15.705 11.9722C15.4732 12.4079 15.378 12.9022 15.4316 13.3918C15.4852 13.8814 15.6851 14.344 16.0057 14.7205C15.0086 15.7471 13.76 16.5006 12.3815 16.9076C12.2199 16.408 11.9021 15.9721 11.474 15.6629C11.046 15.3536 10.5298 15.1869 9.99984 15.1869C9.46992 15.1869 8.95369 15.3536 8.52563 15.6629C8.09757 15.9721 7.7798 16.408 7.61817 16.9076Z" stroke="#505050" stroke-width="1.5" stroke-linejoin="round"/>
<path d="M10.0007 11.8875C10.3837 11.8875 10.7629 11.8128 11.1168 11.6677C11.4707 11.5226 11.7922 11.3099 12.063 11.0418C12.3339 10.7736 12.5487 10.4553 12.6953 10.105C12.8419 9.75466 12.9173 9.37918 12.9173 8.99999C12.9173 8.6208 12.8419 8.24532 12.6953 7.89499C12.5487 7.54466 12.3339 7.22635 12.063 6.95822C11.7922 6.69009 11.4707 6.4774 11.1168 6.33229C10.7629 6.18717 10.3837 6.11249 10.0007 6.11249C9.2271 6.11249 8.48524 6.41671 7.93826 6.95822C7.39128 7.49973 7.08398 8.23418 7.08398 8.99999C7.08398 9.7658 7.39128 10.5002 7.93826 11.0418C8.48524 11.5833 9.2271 11.8875 10.0007 11.8875Z" stroke="#505050" stroke-width="1.5" stroke-linejoin="round"/>
</g>
<defs>
<clipPath id="clip0_23_1963">
<rect width="20" height="18" fill="white"/>
</clipPath>
</defs>
</svg>
