<svg width="16" height="18" viewBox="0 0 16 18" fill="none" xmlns="http://www.w3.org/2000/svg">
<g clip-path="url(#clip0_250_450)">
<path d="M12.2776 1.66667C11.7103 1.66667 11.1663 1.89846 10.7651 2.31104C10.364 2.72362 10.1387 3.2832 10.1387 3.86667C10.1387 4.45015 10.364 5.00973 10.7651 5.42231C11.1663 5.83489 11.7103 6.06667 12.2776 6.06667C12.8448 6.06667 13.3889 5.83489 13.79 5.42231C14.1911 5.00973 14.4164 4.45015 14.4164 3.86667C14.4164 3.2832 14.1911 2.72362 13.79 2.31104C13.3889 1.89846 12.8448 1.66667 12.2776 1.66667Z" stroke="#505050" stroke-width="1.5" stroke-linecap="round" stroke-linejoin="round"/>
<path d="M3.72287 6.8C3.1556 6.8 2.61157 7.03179 2.21045 7.44437C1.80933 7.85695 1.58398 8.41653 1.58398 9C1.58398 9.58348 1.80933 10.1431 2.21045 10.5556C2.61157 10.9682 3.1556 11.2 3.72287 11.2C4.29014 11.2 4.83418 10.9682 5.2353 10.5556C5.63642 10.1431 5.86176 9.58348 5.86176 9C5.86176 8.41653 5.63642 7.85695 5.2353 7.44437C4.83418 7.03179 4.29014 6.8 3.72287 6.8Z" stroke="#505050" stroke-width="1.5" stroke-linecap="round" stroke-linejoin="round"/>
<path d="M12.2776 11.9333C11.7103 11.9333 11.1663 12.1651 10.7651 12.5777C10.364 12.9903 10.1387 13.5499 10.1387 14.1333C10.1387 14.7168 10.364 15.2764 10.7651 15.689C11.1663 16.1015 11.7103 16.3333 12.2776 16.3333C12.8448 16.3333 13.3889 16.1015 13.79 15.689C14.1911 15.2764 14.4164 14.7168 14.4164 14.1333C14.4164 13.5499 14.1911 12.9903 13.79 12.5777C13.3889 12.1651 12.8448 11.9333 12.2776 11.9333Z" stroke="#505050" stroke-width="1.5" stroke-linecap="round" stroke-linejoin="round"/>
<path d="M5.56836 10.1073L10.4379 13.026" stroke="#505050" stroke-width="1.5" stroke-linecap="round" stroke-linejoin="round"/>
<path d="M10.4308 4.974L5.56836 7.89267" stroke="#505050" stroke-width="1.5" stroke-linecap="round" stroke-linejoin="round"/>
</g>
<defs>
<clipPath id="clip0_250_450">
<rect width="16" height="18" fill="white"/>
</clipPath>
</defs>
</svg>
