<svg width="18" height="18" viewBox="0 0 18 18" fill="none" xmlns="http://www.w3.org/2000/svg">
<path d="M8.97349 1.71835C9.36485 1.32285 10.0038 1.32285 10.3951 1.71835L11.196 2.52771C11.5816 2.91735 11.5816 3.54476 11.196 3.93442L3.7881 11.4215C3.60027 11.6114 3.34431 11.7182 3.07725 11.7182H2.28613C1.73385 11.7182 1.28613 11.2705 1.28613 10.7182V9.89827C1.28613 9.63488 1.39005 9.38212 1.57531 9.1949L8.97349 1.71835Z" stroke="#7961F2" stroke-width="1.5"/>
<path d="M1 15.2457H6.56763M6.56763 15.2457C7.36188 13.5148 9.21104 11.8414 10.092 10.5677M6.56763 15.2457C6.21039 16.0243 7.82707 17.8572 8.99964 16.5328C9.45635 16.017 10.3698 14.9853 11.4995 13.6104M12.4736 12.3375C12.4736 12.3375 12.2471 12.7004 11.4995 13.6104M11.4995 13.6104C11.556 13.5581 11.4416 13.6642 11.4995 13.6104ZM11.4995 13.6104C12.0664 14.8376 13.0048 16.3627 14.8314 14.1141C15.0343 13.8643 15.3344 13.7044 15.6563 13.7044H17" stroke="#7961F2" stroke-width="1.5" stroke-linecap="round" stroke-linejoin="round"/>
</svg>
