<svg width="15" height="16" viewBox="0 0 15 16" fill="none" xmlns="http://www.w3.org/2000/svg">
<g clip-path="url(#clip0_111_143)">
<path d="M3.59234 1.42859C3.01566 1.42859 2.4626 1.65937 2.05483 2.07016C1.64705 2.48096 1.41797 3.03811 1.41797 3.61907C1.41797 4.20002 1.64705 4.75717 2.05483 5.16797C2.4626 5.57876 3.01566 5.80954 3.59234 5.80954C4.16902 5.80954 4.72208 5.57876 5.12985 5.16797C5.53762 4.75717 5.76671 4.20002 5.76671 3.61907C5.76671 3.03811 5.53762 2.48096 5.12985 2.07016C4.72208 1.65937 4.16902 1.42859 3.59234 1.42859Z" stroke="#0FC0C5" stroke-width="1.5" stroke-linecap="square"/>
<path d="M3.59234 10.1905C3.01566 10.1905 2.4626 10.4213 2.05483 10.8321C1.64705 11.2429 1.41797 11.8 1.41797 12.381C1.41797 12.9619 1.64705 13.5191 2.05483 13.9299C2.4626 14.3407 3.01566 14.5714 3.59234 14.5714C4.16902 14.5714 4.72208 14.3407 5.12985 13.9299C5.53762 13.5191 5.76671 12.9619 5.76671 12.381C5.76671 11.8 5.53762 11.2429 5.12985 10.8321C4.72208 10.4213 4.16902 10.1905 3.59234 10.1905Z" stroke="#0FC0C5" stroke-width="1.5" stroke-linecap="square"/>
<path d="M13.7394 2.15875L5.12891 10.833" stroke="#0FC0C5" stroke-width="1.5" stroke-linecap="round" stroke-linejoin="round"/>
<path d="M9.73145 9.81079L13.7395 13.8413" stroke="#0FC0C5" stroke-width="1.5" stroke-linecap="round" stroke-linejoin="round"/>
<path d="M5.12891 5.16699L7.94109 8.00001" stroke="#0FC0C5" stroke-width="1.5" stroke-linecap="round" stroke-linejoin="round"/>
</g>
<defs>
<clipPath id="clip0_111_143">
<rect width="15" height="16" fill="white"/>
</clipPath>
</defs>
</svg>
