<svg width="20" height="20" viewBox="0 0 20 20" fill="none" xmlns="http://www.w3.org/2000/svg">
<path d="M3.94499 0.873047C3.13337 0.873047 2.35499 1.19358 1.78108 1.76412C1.20718 2.33467 0.884766 3.1085 0.884766 3.91537C0.884766 4.72225 1.20718 5.49608 1.78108 6.06663C2.35499 6.63717 3.13337 6.9577 3.94499 6.9577C4.75661 6.9577 5.53499 6.63717 6.1089 6.06663C6.6828 5.49608 7.00521 4.72225 7.00521 3.91537C7.00521 3.1085 6.6828 2.33467 6.1089 1.76412C5.53499 1.19358 4.75661 0.873047 3.94499 0.873047Z" stroke="#505050" stroke-width="1.5" stroke-linecap="square"/>
<path d="M3.94499 13.0424C3.13337 13.0424 2.35499 13.3629 1.78108 13.9334C1.20718 14.504 0.884766 15.2778 0.884766 16.0847C0.884766 16.8916 1.20718 17.6654 1.78108 18.2359C2.35499 18.8065 3.13337 19.127 3.94499 19.127C4.75661 19.127 5.53499 18.8065 6.1089 18.2359C6.6828 17.6654 7.00521 16.8916 7.00521 16.0847C7.00521 15.2778 6.6828 14.504 6.1089 13.9334C5.53499 13.3629 4.75661 13.0424 3.94499 13.0424Z" stroke="#505050" stroke-width="1.5" stroke-linecap="square"/>
<path d="M18.2259 1.88708L6.10742 13.9347" stroke="#505050" stroke-width="1.5" stroke-linecap="round" stroke-linejoin="round"/>
<path d="M12.585 12.515L18.226 18.1129" stroke="#505050" stroke-width="1.5" stroke-linecap="round" stroke-linejoin="round"/>
<path d="M6.10742 6.06531L10.0653 10.0001" stroke="#505050" stroke-width="1.5" stroke-linecap="round" stroke-linejoin="round"/>
</svg>
