<svg width="18" height="18" viewBox="0 0 18 18" fill="none" xmlns="http://www.w3.org/2000/svg">
<g clip-path="url(#clip0_23_1966)">
<path d="M16.4291 6.28572C16.4293 7.09848 16.2193 7.89747 15.8195 8.60514C15.4198 9.3128 14.8439 9.9051 14.1477 10.3245C13.4516 10.744 12.6588 10.9763 11.8463 10.999C11.0339 11.0217 10.2294 10.8339 9.51092 10.4539L3.66127 16.3036C3.11885 16.846 2.23941 16.846 1.69699 16.3036V16.3036C1.15456 15.7611 1.15456 14.8817 1.69699 14.3393L7.54663 8.48964C7.07494 7.59863 6.90132 6.57988 7.05124 5.58293C7.20116 4.58598 7.66673 3.66335 8.3796 2.95047C9.09248 2.2376 10.0151 1.77203 11.0121 1.62211C11.8249 1.49987 12.6523 1.59273 13.4131 1.88686C13.668 1.98543 13.7138 2.31235 13.5158 2.50071L11.0294 4.86478C10.622 5.25214 10.6139 5.89908 11.0114 6.29658L11.561 6.84621C11.9446 7.22979 12.5641 7.2376 12.9572 6.8638L15.5014 4.44464C15.6932 4.26229 16.0064 4.31352 16.1034 4.55972C16.3141 5.09429 16.4291 5.67666 16.4291 6.28572Z" stroke="#505050" stroke-width="1.5" stroke-linecap="round" stroke-linejoin="round"/>
</g>
<defs>
<clipPath id="clip0_23_1966">
<rect width="18" height="18" fill="white"/>
</clipPath>
</defs>
</svg>
