<svg width="16" height="16" viewBox="0 0 16 16" fill="none" xmlns="http://www.w3.org/2000/svg">
<path d="M12.6667 7.33331H3.33333H3C2.44772 7.33331 2 7.78103 2 8.33331V8.66665V13.3333V13.6666C2 14.2189 2.44772 14.6666 3 14.6666H3.33333H12.6667H13C13.5523 14.6666 14 14.2189 14 13.6666V13.3333V8.66665V8.33331C14 7.78103 13.5523 7.33331 13 7.33331H12.6667Z" stroke="#FF5975" stroke-width="1.5" stroke-linecap="round" stroke-linejoin="round"/>
<path d="M4.66699 7.33331V4.66665C4.66616 3.84001 4.97251 3.04256 5.52658 2.42909C6.08064 1.81563 6.84288 1.42992 7.66533 1.34684C8.48778 1.26376 9.31176 1.48925 9.97731 1.97952C10.6429 2.4698 11.1025 3.18988 11.267 3.99998" stroke="#FF5975" stroke-width="1.5" stroke-linecap="round" stroke-linejoin="round"/>
</svg>
