<svg width="44" height="54" viewBox="0 0 44 54" fill="none" xmlns="http://www.w3.org/2000/svg">
<path d="M2 53H42C42.5523 53 43 52.5523 43 52V11.1625C43 10.8983 42.8955 10.6448 42.7092 10.4575L33.6009 1.29499C33.4132 1.10617 33.158 1 32.8917 1H2C1.44772 1 1 1.44772 1 2V52C1 52.5523 1.44772 53 2 53Z" stroke="#3D99F5" stroke-width="1.5"/>
<path d="M42.6609 10.409L33.6495 1.34388C33.5236 1.21731 33.3076 1.30641 33.3076 1.48488V10.75H42.5191C42.697 10.75 42.7864 10.5352 42.6609 10.409Z" fill="#3D99F5" stroke="#3D99F5"/>
<path d="M10.6924 10.75L23.6155 10.75" stroke="#3D99F5" stroke-width="1.5" stroke-linecap="round"/>
<path d="M10.6924 23.75L33.3078 23.75" stroke="#3D99F5" stroke-width="1.5" stroke-linecap="round"/>
<path d="M10.6924 33.5L23.6155 33.5" stroke="#3D99F5" stroke-width="1.5" stroke-linecap="round"/>
<path d="M13.9229 43.25H33.3075" stroke="#3D99F5" stroke-width="1.5" stroke-linecap="round"/>
</svg>
